HIERARCHY
ROOT Hips
{
	OFFSET -3.958830 18.904000 13.208200
	CHANNELS 6 Xposition Yposition Zposition Zrotation Yrotation Xrotation 
	JOINT LHipJoint
	{
		OFFSET 0.000000 0.000000 0.000000
		CHANNELS 3 Zrotation Yrotation Xrotation
		JOINT LeftUpLeg
		{
			OFFSET 1.800000 -1.400000 0.085000
			CHANNELS 3 Zrotation Yrotation Xrotation
			JOINT LeftLeg
			{
				OFFSET 2.215000 -6.000000 0.000000
				CHANNELS 3 Zrotation Yrotation Xrotation
				JOINT LeftFoot
				{
					OFFSET 2.500000 -6.900000 0.000000
					CHANNELS 3 Zrotation Yrotation Xrotation
					JOINT LeftToeBase
					{
						OFFSET 0.200000 -0.500000 1.950000
						CHANNELS 3 Zrotation Yrotation Xrotation
						End Site
						{
							OFFSET 0.000000 0.000000 0.000000
						}
					}
				}
			}
		}
	}
	JOINT RHipJoint
	{
		OFFSET 0.000000 0.000000 0.000000
		CHANNELS 3 Zrotation Yrotation Xrotation
		JOINT RightUpLeg
		{
			OFFSET -1.800000 -1.400000 0.085000
			CHANNELS 3 Zrotation Yrotation Xrotation
			JOINT RightLeg
			{
				OFFSET -2.215000 -6.000000 0.000000
				CHANNELS 3 Zrotation Yrotation Xrotation
				JOINT RightFoot
				{
					OFFSET -2.500000 -6.900000 0.000000
					CHANNELS 3 Zrotation Yrotation Xrotation
					JOINT RightToeBase
					{
						OFFSET -0.200000 -0.500000 1.950000
						CHANNELS 3 Zrotation Yrotation Xrotation
						End Site
						{
							OFFSET 0.000000 0.000000 0.000000
						}
					}
				}
			}
		}
	}
	JOINT LowerBack
	{
		OFFSET 0.000000 0.000000 0.000000
		CHANNELS 3 Zrotation Yrotation Xrotation
		JOINT Spine
		{
			OFFSET -0.087000 1.940000 -0.288900
			CHANNELS 3 Zrotation Yrotation Xrotation
			JOINT Spine1
			{
				OFFSET 0.000000 1.950000 0.060000
				CHANNELS 3 Zrotation Yrotation Xrotation
				JOINT Neck
				{
					OFFSET 0.000000 0.000000 0.000000
					CHANNELS 3 Zrotation Yrotation Xrotation
					JOINT Neck1
					{
						OFFSET 0.000000 1.600000 0.340000
						CHANNELS 3 Zrotation Yrotation Xrotation
						JOINT Head
						{
							OFFSET 0.000000 1.667000 -0.240000
							CHANNELS 3 Zrotation Yrotation Xrotation
							End Site
							{
								OFFSET 0.000000 0.000000 0.000000
							}
						}
					}
				}
				JOINT LeftShoulder
				{
					OFFSET 0.000000 0.000000 0.000000
					CHANNELS 3 Zrotation Yrotation Xrotation
					JOINT LeftArm
					{
						OFFSET 2.700000 1.550000 -0.730000
						CHANNELS 3 Zrotation Yrotation Xrotation
						JOINT LeftForeArm
						{
							OFFSET 5.450000 0.000000 0.000000
							CHANNELS 3 Zrotation Yrotation Xrotation
							JOINT LeftHand
							{
								OFFSET 3.450000 0.000000 0.000000
								CHANNELS 3 Zrotation Yrotation Xrotation
								JOINT LeftHandIndex1
								{
									OFFSET 0.750000 0.000000 0.000000
									CHANNELS 3 Zrotation Yrotation Xrotation
									End Site
									{
										OFFSET 0.000000 0.000000 0.000000
									}
								}
							}
						}
					}
				}
				JOINT RightShoulder
				{
					OFFSET 0.000000 0.000000 0.000000
					CHANNELS 3 Zrotation Yrotation Xrotation
					JOINT RightArm
					{
						OFFSET -2.700000 1.550000 -0.730000
						CHANNELS 3 Zrotation Yrotation Xrotation
						JOINT RightForeArm
						{
							OFFSET -5.450000 0.000000 0.000000
							CHANNELS 3 Zrotation Yrotation Xrotation
							JOINT RightHand
							{
								OFFSET -3.450000 0.000000 0.000000
								CHANNELS 3 Zrotation Yrotation Xrotation
								JOINT RightHandIndex1
								{
									OFFSET -0.750000 0.000000 0.000000
									CHANNELS 3 Zrotation Yrotation Xrotation
									End Site
									{
										OFFSET 0.000000 0.000000 0.000000
									}
								}
							}
						}
					}
				}
			}
		}
	}
}
MOTION
Frames: 6
Frame Time: 0.016667
-1.407520 16.291730 -1.588980 -8.428164 3.602438 -11.443109 -15.512745 13.286423 3.203202 30.028937 1.204513 -24.136433 3.959241 9.996074 41.233343 0.372915 8.118363 1.478940 0.176830 0.126970 0.089550 17.997239 -10.187743 2.714942 -19.924131 3.354951 -15.774537 19.433415 -18.564058 43.331934 -1.080300 -8.793345 1.266751 0.143390 0.133650 0.029160 -2.783035 -2.552424 -8.401074 0.334030 2.943527 29.746930 1.332360 5.646538 8.885437 0.423737 1.721495 -9.935299 0.378959 0.772248 41.333481 4.744880 0.912890 -1.873440 -6.284152 -7.654711 0.850328 17.220149 1.406474 -2.858682 108.120177 -33.069649 -39.267013 -3.853974 2.923594 0.109810 0.088780 -0.051460 0.079200 5.484330 8.992725 7.880204 -7.499288 -5.345624 -2.959131 -27.558818 10.974479 -2.181448 2.541306 -1.567991 -0.092270 0.125840 -0.015530 -0.065280 
-1.390730 16.271060 -1.584270 -7.581607 3.420383 -11.513609 -15.469734 13.286299 3.154088 29.449011 0.940312 -23.590718 3.435791 10.211184 41.687466 0.381917 8.176429 1.458880 0.196260 0.149860 0.104260 18.027787 -10.259848 2.734511 -20.348674 3.342615 -16.712680 18.350490 -18.555726 44.695794 -1.097398 -8.885383 1.228481 0.153590 0.119250 0.029550 -2.883368 -2.423459 -8.385538 1.038940 2.321253 29.595598 -0.089491 5.216606 9.166396 0.972920 1.195993 -9.949264 -0.567364 0.809153 41.252983 4.348870 0.580060 -2.655450 -6.111723 -7.318764 0.990386 15.171250 1.565612 -2.995968 102.073649 -35.961964 -38.356874 -3.814983 2.867195 0.117700 0.076060 -0.037810 0.080310 4.175279 8.971806 7.637560 -9.413951 -4.864228 -2.955253 -28.449102 11.391765 -2.298474 2.536595 -1.574958 -0.083690 0.132180 -0.023180 -0.064350 
-1.357710 16.238040 -1.597930 -5.749433 2.726906 -11.302334 -15.369726 13.236026 3.146319 27.849689 0.206860 -23.433337 2.325592 10.742764 43.337694 0.423153 8.402341 1.388921 0.214640 0.162320 0.129040 18.106139 -10.396568 2.752875 -21.283372 3.204179 -18.471562 16.114258 -18.296841 46.960428 -1.098194 -8.996963 1.176242 0.158070 0.093810 0.025720 -3.125010 -2.175346 -8.384349 2.737110 0.890012 29.761154 -3.504627 4.322487 9.233427 2.069981 -0.405335 -9.933553 -3.611941 1.488715 41.201491 3.002700 0.288970 -3.253650 -6.348072 -6.710493 1.172444 11.136693 1.687294 -3.443846 88.041115 -39.730236 -32.736726 -3.751263 2.786347 0.125900 0.058390 -0.026880 0.075880 2.099627 9.208772 7.141717 -13.165279 -5.168740 -3.375559 -32.914077 12.289287 -2.888830 2.552662 -1.631128 -0.075950 0.133850 -0.032390 -0.069690 
-1.316940 16.193330 -1.590910 -3.706240 2.182100 -10.352721 -15.280616 13.104328 3.259345 26.503043 -0.607087 -23.700358 0.121758 11.816284 44.538037 0.483431 8.721774 1.290730 0.217770 0.154380 0.136170 18.199188 -10.454257 2.735054 -22.301694 2.877819 -20.755356 13.386556 -17.790121 49.269036 -1.078289 -9.072040 1.131275 0.152030 0.077640 0.030560 -3.374392 -2.028402 -8.416906 5.048246 -0.841522 29.149982 -6.923382 3.093254 8.780564 3.085009 -2.754266 -10.027297 -8.174281 2.744100 40.383097 1.229990 0.118710 -3.368490 -5.841844 -5.969115 1.490510 7.129507 1.529352 -3.591676 66.838445 -42.283342 -22.851280 -3.688235 2.823325 0.126550 0.049420 -0.025140 0.072990 -0.553911 9.669531 6.501739 -17.940538 -6.642555 -3.807181 -39.330714 12.901372 -3.633088 2.609108 -1.720717 -0.068740 0.124650 -0.032520 -0.071150 
-1.275220 16.163950 -1.585580 -1.567998 1.822081 -9.300331 -15.177659 12.987950 3.369360 24.884614 -1.464765 -23.923803 -1.918101 12.772113 45.434317 0.555251 9.003397 1.218830 0.181440 0.093930 0.115390 18.301140 -10.581844 2.665317 -22.856270 2.468554 -23.175390 9.368807 -16.414393 51.609542 -1.008747 -8.991514 1.141440 0.115540 0.078990 0.027910 -3.655893 -1.825654 -8.406568 7.306547 -2.751449 28.246814 -10.623056 1.590749 8.080480 4.090021 -4.817263 -10.570825 -12.215397 4.026739 39.590060 -0.091080 0.012900 -2.338870 -5.451593 -6.078340 2.529044 4.725060 2.720331 -3.112249 43.175211 -37.835091 -11.402186 -3.678494 3.015619 0.128340 0.045240 -0.041350 0.065030 -2.966103 10.754724 5.937150 -23.373167 -8.513614 -3.958156 -45.381194 13.382500 -4.249631 2.706254 -1.781760 -0.077280 0.111030 -0.014690 -0.072910 
-1.240300 16.155320 -1.579290 0.183627 1.620386 -8.582856 -15.101839 12.989841 3.412901 23.200409 -2.148028 -23.753781 -3.345300 13.092412 45.118161 0.580274 8.998486 1.236062 0.158560 0.056160 0.119440 18.359116 -10.753041 2.551082 -22.733377 2.039505 -24.840516 5.162179 -14.462957 53.044446 -0.927381 -8.745628 1.210848 0.085720 0.065240 0.033020 -3.837380 -1.713115 -8.327771 9.030029 -4.380711 27.487598 -13.349440 0.259992 7.820620 5.153872 -5.996554 -11.038932 -14.454655 4.846800 38.904477 -1.889710 0.598050 -1.625160 -5.517210 -6.559195 3.851424 3.375437 4.085534 -1.983977 25.670880 -29.685113 -4.413215 -3.673746 3.128119 0.125540 0.045970 -0.042430 0.052730 -4.978248 11.744439 5.177201 -28.734121 -9.394620 -4.323990 -51.845877 11.038719 -4.068821 2.830189 -1.820942 -0.073970 0.089160 -0.010450 -0.080130 
